name symmetric_stride_kinematics_IKTD_Minus_4.mot
datacolumns 38
datarows 5
range 0.52197801 0.52615383
endheader
                time	/jointset/ground_pelvis/pelvis_tilt/value	/jointset/ground_pelvis/pelvis_list/value	/jointset/ground_pelvis/pelvis_rotation/value	/jointset/ground_pelvis/pelvis_tx/value	/jointset/ground_pelvis/pelvis_ty/value	/jointset/ground_pelvis/pelvis_tz/value	/jointset/hip_r/hip_flexion_r/value	/jointset/hip_r/hip_adduction_r/value	/jointset/hip_r/hip_rotation_r/value	/jointset/knee_r/knee_angle_r/value	/jointset/ankle_r/ankle_angle_r/value	/jointset/subtalar_r/subtalar_angle_r/value	/jointset/mtp_r/mtp_angle_r/value	/jointset/hip_l/hip_flexion_l/value	/jointset/hip_l/hip_adduction_l/value	/jointset/hip_l/hip_rotation_l/value	/jointset/knee_l/knee_angle_l/value	/jointset/ankle_l/ankle_angle_l/value	/jointset/subtalar_l/subtalar_angle_l/value	/jointset/mtp_l/mtp_angle_l/value	/jointset/back/lumbar_extension/value	/jointset/back/lumbar_bending/value	/jointset/back/lumbar_rotation/value	/jointset/acromial_r/arm_flex_r/value	/jointset/acromial_r/arm_add_r/value	/jointset/acromial_r/arm_rot_r/value	/jointset/elbow_r/elbow_flex_r/value	/jointset/radioulnar_r/pro_sup_r/value	/jointset/radius_hand_r/wrist_flex_r/value	/jointset/radius_hand_r/wrist_dev_r/value	/jointset/acromial_l/arm_flex_l/value	/jointset/acromial_l/arm_add_l/value	/jointset/acromial_l/arm_rot_l/value	/jointset/elbow_l/elbow_flex_l/value	/jointset/radioulnar_l/pro_sup_l/value	/jointset/radius_hand_l/wrist_flex_l/value	/jointset/radius_hand_l/wrist_dev_l/value	
          0.52197801	         -9.63827117	          6.14610548	        -13.73981635	          6.18848348	          0.96381214	          0.30698209	          0.17879111	        -14.94939864	          8.75862312	        -56.52081353	        -30.54985198	        -14.70840175	         -8.39262926	         85.67437836	        -10.99122623	         -0.08332411	        -87.64534924	        -12.40830754	        -23.02102355	         15.66614419	         -9.88220711	         -4.05263411	         10.62619005	         86.81293119	          0.41206929	         -0.00039155	         94.34726253	         78.98997845	        -14.99224998	          7.85562849	        -74.27307411	          0.96389262	         -0.00000529	         76.52311003	         48.99707050	        -14.30741399	          7.83110526	
          0.52262547	         -9.61265119	          6.14030956	        -13.69286345	          6.19582821	          0.96413022	          0.30709076	          0.16220438	        -14.92449265	          8.81663809	        -56.91677263	        -30.59625860	        -14.60736454	         -8.29414700	         85.53300196	        -11.02257345	         -0.17890973	        -86.83907704	        -12.64220655	        -23.04297822	         15.66584837	         -9.97742811	         -4.12257834	         10.61306364	         86.83805718	          0.32350161	         -0.00102704	         94.04700712	         79.02946570	        -14.99281693	          7.83575522	        -74.16870969	          0.96119335	         -0.00135503	         75.99817648	         48.92553532	        -14.41467659	          7.81112180	
          0.52467120	         -9.49627690	          6.11216166	        -13.54757870	          6.21903082	          0.96520450	          0.30744458	          0.08365117	        -14.83767852	          8.99060974	        -58.16521200	        -30.68843139	        -14.35744686	         -8.01478175	         85.00307952	        -11.11293498	         -0.49010795	        -84.28330901	        -13.34567516	        -23.08414956	         15.66528849	        -10.32316273	         -4.34449885	         10.57662584	         86.86966550	          0.00036804	         -0.00322503	         93.17160863	         79.16861913	        -15.00564054	          7.77276936	        -73.80469294	          0.92946910	         -0.01694291	         74.40799255	         48.72440655	        -14.76043579	          7.74825788	
          0.52615383	         -9.37841754	          6.08248771	        -13.44757362	          6.23584619	          0.96604701	          0.30771187	          0.00319587	        -14.76792447	          9.10907226	        -59.06689473	        -30.71208966	        -14.24967322	         -7.85008516	         84.54263307	        -11.17178523	         -0.72290935	        -82.42990368	        -13.81709722	        -23.08618287	         15.66545802	        -10.61541686	         -4.50593150	         10.55766588	         86.84659418	         -0.27493010	         -0.00333671	         92.60675144	         79.28259169	        -15.02542503	          7.72705670	        -73.51075947	          0.88324346	         -0.03796583	         73.32349815	         48.60394110	        -15.01563383	          7.70268716	
          0.52615383	         -9.37841754	          6.08248771	        -13.44757362	          6.23584619	          0.96604701	          0.30771187	          0.00319587	        -14.76792447	          9.10907226	        -59.06689473	        -30.71208966	        -14.24967322	         -7.85008516	         84.54263307	        -11.17178523	         -0.72290935	        -82.42990368	        -13.81709722	        -23.08618287	         15.66545802	        -10.61541686	         -4.50593150	         10.55766588	         86.84659418	         -0.27493010	         -0.00333671	         92.60675144	         79.28259169	        -15.02542503	          7.72705670	        -73.51075947	          0.88324346	         -0.03796583	         73.32349815	         48.60394110	        -15.01563383	          7.70268716	
